<svg height="670" viewBox="0 0 1068 670" width="1068" xmlns="http://www.w3.org/2000/svg" xmlns:xlink="http://www.w3.org/1999/xlink"><linearGradient id="a" gradientUnits="userSpaceOnUse" x1="629.446" x2="533.622" y1="452.582" y2="-93.969"><stop offset="0" stop-color="#f9d28e"/><stop offset="1" stop-color="#71bfff"/></linearGradient><linearGradient id="b" gradientUnits="userSpaceOnUse" x1="705.46" x2="600.764" y1="473.886" y2="59.536"><stop offset="0" stop-color="#f9d28e"/><stop offset="1" stop-color="#f18615"/></linearGradient><linearGradient id="c" x1="533.765" x2="429.068" xlink:href="#b" y1="517.269" y2="102.92"/><linearGradient id="d" x1="629.759" x2="504.12" xlink:href="#b" y1="384.09" y2="-113.143"/><path d="m50.641 647.955c-25.537-11.363 14.588-27.292129.345-27.292s143.999 10.534 135.105 22.703c-11.388 15.582-40.189 24.586-129.368 24.454-44.098-.065-109.545-8.503-135.082-19.866z" fill="#b9c4cd"/><path d="m325.862 618.87c-25.381-17.259 33.05-15.576 73.819-15.576s73.819 6.973 73.819 15.576-33.05 15.576-73.819 15.576-53.982-3.981-73.819-15.576" fill="#b9c4cd"/><path d="m24.147 220.851c-64.149 111.331 14.78 225.723 117.77 261.73s240.267-23.927 253.823-149.529-47.383-221.751-153.149-248.694c-81.762-20.828-154.295 25.162-218.444 136.493z" fill="#f5e1c4"/><path d="m952.692 510.338c46.693-47.078 78.894-96.443 5.994-209.97-27.057-42.136-74.771-42.025-87.836-70.592-20.864-45.626-18.474-101.971-47.015-142.716-71.753-85.577-225.752-90.119-313.117-26.906-29.168 20.609-47.893 52.711-73.771 77.081-28.476 26.816-60.763 38.749-96.464 56.482-143.03 71.043-138.217 218.394-19.086 312.776 131.956 104.543 517.734 131.382 631.295 3.845z" fill="url(#a)"/><path d="m395.74 333.052c6.345-58.791-3.633-111.128-26.888-152.936-9.199 4.382-18.657 8.777-28.369 13.601-128.131 63.643-137.596 188.517-52.536 281.697 55.755-24.4 100.362-73.513 107.793-142.362z" fill="#f9d28e"/><path d="m321.397 506.493c131.956 104.543 517.734 131.382 631.295 3.845 30.644-30.897 55.046-62.779 47.594-113.136-218.212 44.015-559.492 36.528-725.342 62.981 12.603 16.211 28.101 31.769 46.453 46.309z" fill="#004c97"/><path d="m287.947 475.414c13.407-5.867 26.159-13.178 37.915-21.834-18.285 1.944-35.286 4.115-50.763 6.58 4.014 5.165 8.287 10.258 12.848 15.255z" fill="#274059"/><path d="m827.454 312.315v-81.755h5.737 79.537v81.755" fill="#204b66"/><path d="m596.161 83.18 66.375 117.584-132.749-.003z" fill="#5e88b2"/><path d="m654.841 397.202h78.1v61.792h-78.1z" fill="url(#b)"/><path d="m758.758 12.038 2.25-1.04h1.519v10.544h-3.769v-8.182z" fill="#fff"/><path d="m761.008 10.998-2.25 1.04v1.322h-7.068l17.149-7.919 13.253 6.12-1.032.475v1.324h-13.612v-2.362h-4.921z" fill="#b9c4cd"/><path d="m781.06 12.036 1.032-.475 2.03.937v9.047l-3.062-.003v-8.182z" fill="#fff"/><path d="m767.448 10.998v2.362 8.182h-4.921v-10.544z" fill="#b9c4cd"/><path d="m762.527 21.542h4.921 13.612l3.062.003h3.51v9.313h-.446-30.504-3.353v-9.316h5.429z" fill="#fff"/><path d="m376.185 463.648h-6.71v-4.656h6.71 6.854 6.559 75.436 4.172 6.752 1.743 3.323 13.918 3.323 3.326 17.349 6.854 6.56 12.453 1.686 6.688 1.64 23.909 6.855l3.253.002v4.657z" fill="#fff"/><path d="m376.185 528.853v-18.629l215.932.003v9.316h-11.807v9.315l-204.125-.002z" fill="#ababab"/><path d="m651.812 528.858h-10.682v-9.315-9.316h27.422v18.631z" fill="#ababab"/><path d="m376.185 372.36h-6.71v-9.316l299.223.003v9.315h-7.003l-129.341-.002h-6.56-6.854-60.763-68.579-6.559z" fill="#fff"/><path d="m661.695 372.362h6.857v86.632h-6.857v-55.894-9.316z" fill="#fff"/><path d="m661.695 372.362v21.422h-8.774v65.21h-15.069v4.657h3.278v46.576h-12.434v-97.812-9.315h-1.638-48.328v55.892h-23.909v-65.208h-1.64-20.827v-21.424z" fill="#3d77a8"/><path d="m641.13 510.227v-46.576h27.422v46.576z" fill="#b9c4cd"/><path d="m376.185 463.648 212.653.003h3.279v46.576l-215.932-.003z" fill="#b9c4cd"/><path d="m819.772 30.858h-3.352-28.788v-9.313h.26l4.919-.003h13.614 3.769 4.919 4.659z" fill="#b9c4cd"/><path d="m787.632 21.545h-3.51v-9.047l1.87.862h1.9v8.185z" fill="#fff"/><path d="m629.565 528.858h-.241v-9.315h11.806v9.315z" fill="#868686"/><path d="m458.177 372.36h60.763v21.424h-49.734v65.208h-4.172-6.857z" fill="#5e88b2"/><path d="m518.941 372.36h-60.7v10.208l47.776 76.426h12.924z" fill="#3d77a8"/><path d="m472.183 397.202h78.1v61.792h-78.1z" fill="url(#c)"/><path d="m563.67 238.032h78.1v78.1h-78.1z" fill="url(#d)"/><path d="m661.695 393.784v9.316h-.383-1.641v55.894h-6.75v-65.21z" fill="#fff"/><path d="m369.475 363.044 80.549-16.948 8.891-1.872 16.401-3.448 86.975-18.302h82.499 1.641l22.267 40.573z" fill="#562107"/><path d="m475.316 340.776-16.401 3.448v-46.965h16.401z" fill="#b9c4cd"/><path d="m518.94 458.992v-34.524-4.66-12.191-4.517-9.316-21.424h6.854v86.632z" fill="#fff"/><path d="m501.591 419.808h17.348v4.659h-17.348z" fill="#fff"/><path d="m821.412 13.36h-6.299-4.919-3.769-13.614-4.919-1.9v-3.26h35.42z" fill="#231f20"/><path d="m810.194 13.36h4.919v8.182h-4.919z" fill="#b9c4cd"/><path d="m784.122 12.498-2.03-.937-13.253-6.12-17.149 7.919v-3.26l17.149-7.922 17.153 7.922v3.26z" fill="#535d63"/><path d="m518.94 403.1v4.517l-17.349-.003v12.194 4.66 34.524h-3.326v-55.892z" fill="#fff"/><path d="m546.493 458.992h-1.686v-34.524-4.657-12.194h-12.453v-4.517h14.139z" fill="#fff"/><path d="m532.354 403.1v4.517 12.191 4.66 34.524h-6.56v-86.632h6.56v21.424z" fill="#b9c4cd"/><path d="m532.354 419.809h12.453v4.658h-12.453z" fill="#fff"/><path d="m518.94 393.784v9.316h-20.675-20.564-1.743v55.892h-6.752v-65.208z" fill="#fff"/><path d="m477.701 403.1h20.564v55.892h-3.323v-34.524-4.66-12.194h-13.918v12.194 4.66 34.524h-3.323z" fill="#fff"/><path d="m652.921 458.994h6.75 1.641.383 6.857l.146 4.657h-27.568-3.278v-4.657z" fill="#fff"/><path d="m659.671 403.1h1.641v55.894h-1.641z" fill="#b9c4cd"/><g fill="#fff"><path d="m661.312 403.1h.383v55.894h-.383z"/><path d="m450.024 346.096h-18.676v-15.305l156.615-277.44 156.613 277.443v15.304h-27.569v-48.837l-49.213-87.184-5.258-9.313-66.375-117.584-8.198-14.524-129.048 228.603v46.965z"/><path d="m376.185 372.36h6.854v86.632h-6.854z"/><path d="m532.354 403.1v-9.316h20.827v65.208h-6.688v-55.892z"/><path d="m585.585 458.992h-6.855v-55.892h48.328v9.315 97.812h-6.857v-97.812h-31.01-3.606z"/></g><path d="m475.958 403.1h1.743v55.892h-1.743z" fill="#818c93"/><path d="m553.181 393.784h1.64v65.208h-1.64z" fill="#b9c4cd"/><path d="m587.963 68.656 8.198 14.524-66.374 117.581h-1.641l-5.257 9.316h1.641l-49.214 87.182h-16.401z" fill="#b9c4cd"/><path d="m588.838 458.994-3.253-.002v-46.577h3.606v46.579z" fill="#b9c4cd"/><path d="m588.838 458.994h.353 9.486v4.657h-6.56-3.279z" fill="#b9c4cd"/><path d="m668.552 510.227v18.631l294.76-.002c10.273-2.998 19.099-6.143 26.326-9.412v-9.219l-239.095.003h-81.992z" fill="#868686"/><path d="m475.316 340.776v-43.517l49.214-87.182h143.264l49.213 87.184v48.837h27.569 5.968v15.655l-104.113-39.279v-89.842h-1.641-84.14v89.842h1.641z" fill="#5e88b2"/><path d="m621.486 128.043-25.325-44.863-66.373 117.581h-1.642l-5.257 9.316 1.641-.001-49.214 87.183v43.517l29.601-6.229z" fill="#3d77a8"/><path d="m912.728 346.098h-162.184v15.655l3.428 1.293v9.313h-3.428v86.634h3.428v4.656h-3.428v45.456l183.53 1.119h18.73c39.831-40.183 69.039-82.076 31.323-164.128h-60.967s-10.431 0-10.431 0z" fill="#204b66"/><path d="m753.972 372.36h-3.428l-75.432.002h-6.414v-9.315h85.274z" fill="#b9c4cd"/><path d="m753.972 463.651h-3.428-81.846v-4.657h6.414 3.545 3.324 3.323 22.652 3.326 3.323 13.917 1.684 6.854 1.641 11.843 3.428z" fill="#b9c4cd"/><path d="m675.112 458.994h-6.414l-.146-86.632h6.56v21.425 9.313 4.517 12.194 4.657z" fill="#b9c4cd"/><path d="m837.884 346.098h-87.34-5.968v-15.304h93.308z" fill="#b9c4cd"/><path d="m737.06 458.994h-6.854v-55.891l-18.924-.003h-29.301-6.869v-9.313h61.948z" fill="#fff"/><path d="m675.112 372.362 75.432-.002v86.634h-11.843v-65.207h-1.641-61.948z" fill="#3d77a8"/><path d="m685.304 458.994h-3.323v-55.894h29.301v55.894h-3.326v-34.526-4.657-12.194h-22.652v12.194 4.657z" fill="#fff"/><path d="m681.981 458.994h-3.324v-34.526-4.657-12.194h-3.545v-4.517h6.869z" fill="#fff"/><path d="m737.06 393.787h1.641v65.207h-1.641z" fill="#b9c4cd"/><path d="m714.605 458.994h-3.323v-55.894l18.924.003v55.891h-1.684v-34.524-4.659-12.194h-13.917v12.194 4.657z" fill="#fff"/><path d="m675.112 419.811h3.546v4.657h-3.546z" fill="#fff"/><path d="m989.638 346.096-66.478.002v-15.307h93.308v15.305z" fill="#b9c4cd"/><path d="m668.552 463.651h81.992v46.577h-81.992z" fill="#616d7d"/><path d="m598.677 510.227h42.453v9.316h-11.806-37.207v-9.316z" fill="#f5e1c4"/><path d="m598.677 510.227h-6.56v-46.576h6.56z" fill="#616d7d"/><path d="m598.677 510.227v-46.576-4.657h-9.486v-46.579h31.01v97.812z" fill="#562107"/><path d="m383.039 372.36h6.559v86.632h-6.559z" fill="#b9c4cd"/><path d="m753.972 363.047h-85.274l-22.267-40.573 104.113 39.279z" fill="#7e3107"/><path d="m662.536 200.764 5.258 9.313h-143.264-1.641l5.257-9.316h1.641z" fill="#fff"/><path d="m859.852 53.349 156.616 277.442h-93.308l-10.432-18.476v-75.491h16.886v-9.316l-104.263-79.861h-96.426l9.265 16.411 9.822 7.525 79.442 140.732 10.43 18.479h-93.308l-156.613-277.443 168.719-.002h15.439l15.438 27.348h28.861v-27.348z" fill="#7e3107"/><path d="m772.121 53.349h-15.439v-22.491h30.504.373v49.839z" fill="#5e88b2"/><path d="m748.012 171.583-9.822-7.525-9.265-16.411 104.266 79.861v9.316z" fill="#fff"/><path d="m644.79 322.474h-84.14v-89.842h84.14zm-75.644-9.316h68.79v-71.211h-18.923l-29.302-.003h-22.205v71.214z" fill="#fff"/><path d="m912.728 312.315v33.783h-74.844v-15.304l-10.43-18.479m6.559-70.367v80.527h73.87v-80.53l-72.154.003z" fill="#204b66"/><path d="m912.728 236.824h-79.537v-9.316h96.423v9.316z" fill="#b9c4cd"/><path d="m923.16 330.791v15.307h-10.432v-33.783z" fill="#fff"/><path d="m827.454 312.315-79.442-140.732 85.179 65.241-5.737-4.395z" fill="#5e88b2"/><path d="m728.925 147.647h96.426l104.263 79.861h-96.423z" fill="#562107"/><path d="m627.058 412.415h1.638v97.812h-1.638z" fill="#b9c4cd"/><path d="m627.058 403.1h1.638v9.316h-1.638z" fill="#b9c4cd"/><path d="m644.79 232.632h1.641v89.842h-1.641z" fill="#b9c4cd"/><path d="m816.42 53.349v27.348h-28.861v-49.839h28.861z" fill="#204b66"/><path d="m806.425 13.36h3.769v8.182h-3.769z" fill="#fff"/><path d="m787.892 13.36h4.92v8.184h-4.92z" fill="#b9c4cd"/><path d="m785.992 10.1-17.153-7.922h35.423l17.15 7.922z" fill="#616d7d"/><path d="m685.304 419.811h22.651v4.657h-22.651z" fill="#fff"/><path d="m714.605 419.811h13.917v4.658h-13.917z" fill="#fff"/><path d="m481.024 419.808h13.917v4.659h-13.917z" fill="#fff"/><path d="m629.324 528.858h-49.014v-9.315h11.807 37.207z" fill="#f5e1c4"/><path d="m907.883 322.474h-72.154v-80.527l72.154-.003zm-8.274-71.214h-57.321v61.898h59.036v-61.898h-1.714z" fill="#b9c4cd"/><path d="m834.013 241.948h1.716v80.527h-1.716z" fill="#fff"/><path d="m569.146 313.159v-71.214h20.565v71.214zm3.324-4.517h13.918v-62.18h-13.918z" fill="#fff"/><path d="m567.506 241.945h1.64v71.214h-1.64z" fill="#b9c4cd"/><path d="m637.936 313.159h-18.923v-71.211h18.923zm-15.6-66.697v62.18l13.918.003v-62.183z" fill="#fff"/><path d="m589.711 313.159v-71.214l29.302.003v71.211zm25.975-66.697h-22.652v62.18h22.652z" fill="#fff"/><path d="m572.47 258.656h13.918v4.657h-13.918z" fill="#fff"/><path d="m593.035 258.656h22.652v4.658h-22.652z" fill="#fff"/><path d="m622.335 258.656h13.918v4.659h-13.918z" fill="#fff"/><path d="m899.608 251.261v61.898h-29.517v-61.898zm-3.145 4.466h-23.23v52.967h23.23z" fill="#b9c4cd"/><path d="m899.608 251.261h1.714v61.898h-1.714z" fill="#fff"/><path d="m870.092 313.159h-27.805v-61.898h27.805zm-26.375-4.463 23.231-.002v-52.967h-23.231z" fill="#b9c4cd"/><path d="m843.717 272.494h23.231v36.2h-23.231z" fill="#f18615"/><path d="m843.717 255.726h23.231v12.111h-23.231z" fill="#f18615"/><path d="m843.717 267.837h23.231v4.657h-23.231z" fill="#b9c4cd"/><path d="m873.233 255.726h23.23v12.11h-23.23z" fill="#f18615"/><path d="m873.233 272.494h23.23v36.199h-23.23z" fill="#f18615"/><path d="m873.233 267.836h23.23v4.658h-23.23z" fill="#b9c4cd"/><path d="m756.682 30.858h30.877v5.498h-30.877z" fill="#3d77a8"/><path d="m670.549 214.959h-98.079l2.709-4.882h92.615z" fill="#5e88b2"/><path d="m649.166 323.506-2.735-1.032v-89.842l2.735 3.278z" fill="#bfbfbf"/><path d="m736.026 346.098 11.986 14.7 2.532.955v-15.655z" fill="#5e88b2"/><path d="m827.454 232.429.001 6.933-72.549-55.567-6.894-12.212" fill="#3d77a8"/><path d="m376.185 372.36h6.854v7.7h-6.854z" fill="#b9c4cd"/><path d="m518.94 372.36h6.854v7.7h-6.854z" fill="#b9c4cd"/><path d="m661.696 372.36h6.854v7.7h-6.854z" fill="#b9c4cd"/><path d="m861.589 378.279c12.471 1.845 23.707 8.293 24.986 22.318 1.211 13.277-8.919 26.419-3.909 39.571 5.143 13.498 19.822 18.117 14.463 34.814-1.908 5.947-4.983 11.742-4.828 17.986.326 13.082 13.091 21.072 19.328 31.334 8.05 13.244 5.07 31.492-5.647 42.375-20.379 20.695-54.941 13.261-80.647 11.301-14.934-1.139-28.408-8.79-32.144-24.308-4.336-18.014 7.017-26.695 14.113-40.942 6.905-13.864-1.596-30.193-1.8-45.68-.229-17.315 13.748-26.82 16.314-42.73 1.856-11.505-4.62-23.357 1.823-34.225 3.412-5.754 9.729-9.309 16.238-10.852 6.452-1.53 14.299-2.059 21.71-.962z" fill="#f5a42c"/><path d="m974.684 189.381c21.076 3.118 40.066 14.015 42.227 37.718 2.046 22.439-15.074 44.65-6.607 66.877 8.692 22.814 33.501 30.619 24.444 58.838-3.225 10.05-8.422 19.845-8.159 30.398.551 22.11 22.124 35.612 32.666 52.956 13.606 22.383 8.568 53.223-9.544 71.617-34.441 34.975-92.852 22.412-136.297 19.099-25.24-1.925-48.012-14.856-54.324-41.082-7.328-30.445 11.859-45.116 23.85-69.194 11.67-23.432-2.696-51.027-3.043-77.202-.387-29.263 23.234-45.328 27.572-72.216 3.137-19.444-7.808-39.474 3.082-57.842 5.766-9.725 16.442-15.732 27.443-18.341 10.904-2.586 24.166-3.48 36.691-1.626z" fill="#ed6a00"/><path d="m877.977 519.532-22.655 32.56v-138.403c0-.608-.493-1.101-1.101-1.101s-1.101.493-1.101 1.101v97.275l-22.942-50.204c-.252-.552-.904-.798-1.459-.544-.553.252-.796.906-.543 1.458l24.944 54.585v85.651c0 .608.493 1.101 1.101 1.101s1.101-.493 1.101-1.101v-45.965l24.462-35.157c.348-.499.225-1.185-.274-1.532-.498-.346-1.185-.224-1.532.275zm126.781-91.587c-.676-.469-1.603-.303-2.072.372l-38.966 56.001v-235.094c0-.822-.667-1.488-1.488-1.488s-1.488.666-1.488 1.488v166.109l-39.484-86.402c-.341-.748-1.224-1.078-1.972-.735-.748.342-1.077 1.225-.736 1.972l42.192 92.328v66.544 105.89c0 .822.666 1.488 1.488 1.488s1.488-.666 1.488-1.488v-105.401l41.409-59.512c.47-.674.303-1.602-.371-2.072z" fill="#562107"/><path d="m105.412 643.233 47.71.134c3.147.008 5.736-2.522 5.748-5.669.008-2.427-.456-5.114-.866-7.581-.374-2.239 17.751-71.908 21.975-119.66l-35.63.429-9.656 111.697c.016 1.322-.822 2.502-2.073 2.923-3.163 1.066-8.938 2.683-14.493 4.312-4.572 1.345-8.994 2.699-11.692 3.765-7.857 3.108-3.568 9.65-1.023 9.65z" fill="#a85d2e"/><path d="m105.412 643.233 47.71.134c3.147.008 5.736-2.522 5.748-5.669.008-2.427-.456-5.114-.866-7.581-1.751-.397-3.832-.433-6.24.205-8.915 2.361-18.985 4.757-21.485 4.528-3.995-.366-9.027-3.635-12.153-5.032-4.572 1.345-8.994 2.699-11.692 3.765-7.857 3.108-3.568 9.651-1.023 9.651z" fill="#231f20"/><path d="m135.061 618.336.782-10.063 26.392 2.05z" fill="#7e3107"/><path d="m257.388 582.703-3.382 36.167 3.498 11.246-28.771.349.557-11.313-1.087-46.395z" fill="#a85d2e"/><path d="m228.778 630.116c6.584-4.964 17.812-6.147 28.726 0 0 0 1.744 5.151 1.738 7.579-.009 3.147-2.989 5.667-5.439 5.667h-21.223c-2.45 0-4.466-2.519-4.475-5.667-.006-2.427.355-5.112.674-7.579z" fill="#231f20"/><path d="m229.083 610.323 24.923 8.547.873-9.257z" fill="#7e3107"/><path d="m268.78 610.323s9.964-183.916 4.469-222.658c-4.119-29.036-22.255-55.948-22.255-55.948-26.644-3.509-54.747-3.374-81.132.122 0 0-15.422 24.522-20.212 52.688-5.2 30.579-29.146 225.796-29.146 225.796h55.413l34.52-180.121 4.661 180.121z" fill="#616d7d"/><path d="m210.43 430.201-5.083-18.415-3.193 61.723z" fill="#231f20"/><path d="m168.196 147.91s-23.638-2.675-17.142 26.722c2.097 9.491-6.599 22.18 11.366 32.209 10.274 5.735 2.111 18.924 31.895 23.326 11.543 1.706 22.507-3.084 24.601-5.061 7.675-7.246 44.035 9.852 41.168-18.403-1.132-11.157 17.163-12.485 2.282-32.74-8.568-11.663 3.376-26.898-23.111-31.383-6.849-1.16-5.318-22.124-33.805-12.537-8.81 2.965-28.008-8.057-37.253 17.867z" fill="#231f20"/><path d="m181.15 189.85c1.689 5.464 4.935 8.066 8.55 6.934.502 1.721 1.736 5.108 3.753 7.678l-1.436 20.028c19.466 12.777 32.99-1.774 32.99-1.774l-.461-5.384-16.58-7.254c7.897 1.229 13.353-1.04 16.721-3.731 5.248-4.194 7.395-10.318 8.133-16.388.104-.845.178-1.69.225-2.533.039-.724.06-1.445.066-2.164.015-1.37-.04-2.726-.137-4.039-.068-.901-.155-1.782-.262-2.641-.072-.61-.153-1.204-.239-1.787-.984-6.492-1.624-8.568-2.736-11.246-3.355-8.074-10.601-13.86-16.537-12.222-6.012 1.661-3.707 6.476-15.456 11.13-7.445 2.953-7.441 9.532-6.683 16.547.198 1.84-.29 2.748-1.123 2.877-.563.087-1.28-.186-2.048-.763-.486-.348-1.032-.737-1.681-1.161-3.241-2.104-7.289.656-5.057 7.892z" fill="#a85d2e"/><path d="m150.474 330.438 7.648 12.427c1.381-.702 7.051-2.84 10.665-3.704 5.304-1.268 13.396-2.192 18.337-2.563 2.2-.165 3.143.566 3.228 1.563.086 1.011-.648 1.945-1.456 2.249.185-.025.4-.055.649-.092 1.767-.26 2.897.101 3.399.991.685 1.215-.656 2.805-1.956 3.091-.355.078-.705.145-1.026.2.111-.012.227-.025.351-.038 1.202-.128 2.173.828 2.264 1.62.17 1.49-.989 2.236-2.964 2.806-.97.28-3.687.696-3.687.696 1.353-.068 2.165.865 2.375 1.392.435 1.094-.234 2.459-3.055 3.037-3.164.647-3.625 1-8.115 1.778-1.574.273-4.91.737-6.452 1.318-5.227 1.968-14.797 7.1-20.526 4.295-6.143-3.007-19.987-19.71-19.987-19.71l20.309-11.357z" fill="#a85d2e"/><path d="m188.369 340.383c.038.065.061.141.063.222.006.267-.213.498-.487.517-4.826.324-8.741.962-12.527 1.578-1.158.188-2.316.377-3.502.558-.274.042-.519-.14-.548-.403-.03-.264.168-.512.441-.554 1.182-.18 2.337-.368 3.492-.556 3.665-.597 7.365-1.236 12.625-1.59.19-.013.358.081.445.228z" fill="#7e3107"/><path d="m189.645 344.43c.038.065.061.141.063.222.005.267-.212.498-.487.517-7.104.477-11.602.96-16.196 1.66-.274.042-.519-.14-.548-.403-.03-.264.168-.512.441-.554 4.799-.732 9.516-1.215 16.283-1.67.19-.013.358.081.445.228z" fill="#7e3107"/><path d="m185.66 349.177c.038.065.061.14.063.222.006.267-.212.498-.487.517-4.768.32-6.084.536-8.706.966-.828.136-1.785.293-3.019.481-.274.042-.519-.14-.548-.403-.03-.264.168-.512.441-.554 1.229-.187 2.181-.344 3.007-.479 2.554-.42 3.601-.629 8.804-.978.19-.013.358.081.445.228z" fill="#7e3107"/><path d="m169.846 331.866s1.066-13.772 2.313-14.074c1.246-.302 78.039-.64 78.039-.64l.86 14.687c-27.614 3.459-50.671 3.104-81.211.028z" fill="#231f20"/><path d="m251.255 280.537 5.849 43.622c-.983.628-56.719 4.398-93.244-.401l2.274-38.406-18.375 10.422-11.712 6.71 19.747 36.468c.355 8.159-12.535 15.348-21.521 19.225 0 0-26.605-35.828-34.266-47.897-10.809-17.029-7.449-26.605 8.159-41.148 10.475-9.76 23.163-19.836 36.538-29.797 16.671-12.416 25.98-17.504 47.516-18.391 9.9 4.97 24.097 3.989 32.55-.268 14.686 1.536 36.062 2.397 45.285 19.069 9.226 16.678 14.679 45.671 14.899 46.115-.514-.429-33.699-5.321-33.699-5.321z" fill="#f18615"/><path d="m287.964 385.727c-1.156 6.857-29.478 1.104-27.196-4.313 4.666-9.555 27.103-17.563 27.196 4.313z" fill="#371d15"/><path d="m261.206 405.807c.827 2.989 1.249 7.76 3.825 7.019.937-.27 1.086-.849 1.631-3.972.958-5.492.23-13.171.556-13.385.063-.041-5.957-17.624-5.957-17.624-.085 1.948-1.725 6.235-2.202 13.013-.405 5.743.844 10.241 2.147 14.95z" fill="#a85d2e"/><path d="m260.24 379.674s.26 4.249-.007 5.687c-.212 1.139 1.235 1.051 2.342 1.676.076.31.123.542.131.678.016.266 3.219 7.928 4.079 12.748.484 2.715.085 8.797-.649 15.993-.265 2.593.069 6.853 2.039 6.712 1.048-.075 1.644-1.055 1.726-2.074.025.22-.34 3.707 1.312 3.841 1.888.153 2.746-2.064 3.035-3.291-.117.835-.072 2.197 1.771 2.02 1.551-.149 2.844-3.408 3.171-6.706 1.002-10.114 2.247-14.214-1.974-32.861l-1.196-18.94c-10.472-1.572-13.886.172-15.778 14.514zm14.113 41.405c.002-.017.005-.035.006-.05.001.008-.001.025-.006.05z" fill="#a85d2e"/><path d="m265.673 412.89c-.082.005-.166-.01-.245-.049-.242-.119-.341-.412-.222-.653.647-1.313.624-2.867.599-4.513-.017-1.142-.035-2.322.158-3.537.539-3.395.144-5.265-.204-6.916-.167-.79-.325-1.536-.376-2.384-.016-.269.188-.5.457-.516s.5.188.516.457c.047.776.198 1.488.357 2.243.366 1.733.781 3.697.213 7.27-.179 1.131-.162 2.269-.146 3.369.027 1.766.052 3.435-.699 4.959-.08.163-.239.261-.408.271z" fill="#7e3107"/><path d="m270.142 420.77c-.05.003-.102-.002-.154-.015-.26-.069-.416-.335-.347-.596.434-1.643 1.448-7.72 1.806-12.719.019-.269.252-.47.521-.452.269.019.471.253.452.521-.338 4.728-1.331 10.986-1.836 12.899-.055.208-.237.35-.442.362z" fill="#7e3107"/><path d="m274.389 421.516c-.046.003-.093 0-.141-.012-.262-.061-.425-.323-.364-.585.013-.056 1.306-5.681 1.534-12.401.009-.269.233-.482.504-.471.269.009.48.235.471.504-.231 6.82-1.545 12.532-1.559 12.589-.05.215-.235.363-.445.376z" fill="#7e3107"/><path d="m279.634 265.638c-4.252-14.401-29.088 9.578-29.088 9.578v31.926l9.578 74.138c7.581-5.3 28.295-2.661 27.84 4.447 1.602-25.022 2.036-32.872 2.666-47.37.463-10.655 0-35.473-10.997-72.719z" fill="#f18615"/><path d="m166.83 276.635-.695 8.717-18.375 10.422z" fill="#b44023"/><path d="m237.449 326.652c-.277 0-.51-.214-.53-.494-.021-.293.2-.548.493-.569l19.299-1.379-6.663-48.745c-.04-.291.164-.559.455-.599.289-.039.559.164.599.455l6.74 49.307c.02.146-.021.293-.114.407s-.228.185-.375.195l-19.865 1.419c-.013.001-.026.001-.038.001z" fill="#b44023"/><path d="m268.318 163.962c.102.158.058.37-.101.473-.158.102-.369.056-.471-.102l-.696-1.081-.612-1.135c-.335-.731-.699-1.628-.946-2.401-1.547-4.767-.933-10.186-2.232-14.847-.828-3.102-2.85-5.612-5.56-7.297-2.751-1.696-5.87-2.791-9.018-3.573-.828-.215-1.941-.406-2.656-.9-2.306-1.597-3.212-4.331-4.538-6.517-2.356-4.462-5.786-7.586-10.862-8.458-4.871-.885-9.854-.083-14.681.979-.17.038-.347-.06-.401-.229-.057-.18.042-.372.222-.429 6.403-1.972 13.828-3.386 20.144-.287 3.187 1.558 5.555 4.464 7.25 7.474.853 1.476 1.589 3.001 2.464 4.283.438.631.923 1.19 1.452 1.518.261.167.557.275.856.343 5.394 1.344 11.19 3.203 14.702 7.825 5.261 7.147.947 16.717 5.686 24.36z" fill="#f5a42c"/><path d="m553.181 580.89c-4.78 10.885-23.097 10.885-51.589 10.885s-39.562-2.753-51.589-10.885 23.097-10.885 51.589-10.885 56.369 0 51.589 10.885z" fill="#b9c4cd"/><path d="m501.591 570.004c-11.099 0-23.205.418-33.138 1.409 25.153 6.415 51.697 11.65 78.942 15.603 2.683-1.512 4.632-3.5 5.786-6.127 4.78-10.885-23.097-10.885-51.589-10.885z" fill="#487aa3"/><ellipse cx="569.146" cy="552.054" fill="#487aa3" rx="30.481" ry="6.431"/></svg>